<svg width="504" height="250" viewBox="0 0 504 250" fill="none" xmlns="http://www.w3.org/2000/svg">
<g filter="url(#filter0_d)">
<path d="M105.981 72.84V140.88H54.4611L105.141 72.84H105.981ZM105.981 173.64V219H143.781V173.64H169.821V140.88H143.781V23H108.221L23.1011 137.24V173.64H105.981ZM219.847 120.16C219.847 116.8 219.847 112.787 219.847 108.12C220.034 103.267 220.407 98.32 220.967 93.28C221.527 88.24 222.46 83.2933 223.767 78.44C225.074 73.4 226.847 68.92 229.087 65C231.514 61.08 234.5 57.9067 238.047 55.48C241.78 53.0533 246.354 51.84 251.767 51.84C257.18 51.84 261.754 53.0533 265.487 55.48C269.22 57.9067 272.3 61.08 274.727 65C277.154 68.92 278.927 73.4 280.047 78.44C281.354 83.2933 282.287 88.24 282.847 93.28C283.594 98.32 283.967 103.267 283.967 108.12C284.154 112.787 284.247 116.8 284.247 120.16C284.247 125.76 284.06 132.573 283.687 140.6C283.314 148.44 282.1 156.093 280.047 163.56C278.18 170.84 275.007 177.093 270.527 182.32C266.234 187.547 259.98 190.16 251.767 190.16C243.74 190.16 237.58 187.547 233.287 182.32C228.994 177.093 225.82 170.84 223.767 163.56C221.9 156.093 220.78 148.44 220.407 140.6C220.034 132.573 219.847 125.76 219.847 120.16ZM180.087 120.16C180.087 139.76 181.954 156.187 185.687 169.44C189.607 182.507 194.834 192.96 201.367 200.8C207.9 208.64 215.46 214.24 224.047 217.6C232.82 220.96 242.06 222.64 251.767 222.64C261.66 222.64 270.9 220.96 279.487 217.6C288.26 214.24 295.914 208.64 302.447 200.8C309.167 192.96 314.394 182.507 318.127 169.44C322.047 156.187 324.007 139.76 324.007 120.16C324.007 101.12 322.047 85.16 318.127 72.28C314.394 59.2133 309.167 48.76 302.447 40.92C295.914 33.08 288.26 27.48 279.487 24.12C270.9 20.76 261.66 19.08 251.767 19.08C242.06 19.08 232.82 20.76 224.047 24.12C215.46 27.48 207.9 33.08 201.367 40.92C194.834 48.76 189.607 59.2133 185.687 72.28C181.954 85.16 180.087 101.12 180.087 120.16ZM417.153 72.84V140.88H365.633L416.313 72.84H417.153ZM417.153 173.64V219H454.953V173.64H480.993V140.88H454.953V23H419.393L334.273 137.24V173.64H417.153Z" fill="#0E3259"/>
</g>
<defs>
<filter id="filter0_d" x="0.101089" y="0.0799866" width="503.892" height="249.56" filterUnits="userSpaceOnUse" color-interpolation-filters="sRGB">
<feFlood flood-opacity="0" result="BackgroundImageFix"/>
<feColorMatrix in="SourceAlpha" type="matrix" values="0 0 0 0 0 0 0 0 0 0 0 0 0 0 0 0 0 0 127 0"/>
<feOffset dy="4"/>
<feGaussianBlur stdDeviation="11.5"/>
<feColorMatrix type="matrix" values="0 0 0 0 0.054902 0 0 0 0 0.196078 0 0 0 0 0.34902 0 0 0 0.5 0"/>
<feBlend mode="normal" in2="BackgroundImageFix" result="effect1_dropShadow"/>
<feBlend mode="normal" in="SourceGraphic" in2="effect1_dropShadow" result="shape"/>
</filter>
</defs>
</svg>
