<svg width="463" height="250" viewBox="0 0 463 250" fill="none" xmlns="http://www.w3.org/2000/svg">
<g filter="url(#filter0_d)">
<path d="M158.621 55.76V23H49.1411L29.8211 131.36H65.6611C69.5811 125.947 73.7811 122.027 78.2611 119.6C82.7411 116.987 88.5278 115.68 95.6211 115.68C101.034 115.68 105.794 116.613 109.901 118.48C114.008 120.347 117.554 122.96 120.541 126.32C123.528 129.68 125.768 133.6 127.261 138.08C128.754 142.56 129.501 147.32 129.501 152.36C129.501 157.213 128.661 161.973 126.981 166.64C125.488 171.12 123.248 175.133 120.261 178.68C117.461 182.04 113.914 184.84 109.621 187.08C105.514 189.133 100.848 190.16 95.6211 190.16C86.6611 190.16 79.2878 187.547 73.5011 182.32C67.7144 176.907 64.3544 169.72 63.4211 160.76H23.6611C23.8478 171.027 25.9011 180.08 29.8211 187.92C33.9278 195.573 39.3411 202.013 46.0611 207.24C52.7811 212.467 60.4344 216.387 69.0211 219C77.7944 221.427 86.9411 222.64 96.4611 222.64C106.354 222.827 115.688 221.24 124.461 217.88C133.234 214.333 140.888 209.387 147.421 203.04C154.141 196.693 159.461 189.227 163.381 180.64C167.301 171.867 169.261 162.44 169.261 152.36C169.261 143.213 167.861 134.627 165.061 126.6C162.448 118.387 158.528 111.293 153.301 105.32C148.261 99.3467 142.008 94.5867 134.541 91.04C127.074 87.4933 118.488 85.72 108.781 85.72C100.941 85.72 93.9411 86.9333 87.7811 89.36C81.6211 91.6 75.8344 95.4267 70.4211 100.84L69.8611 100.28L77.7011 55.76H158.621ZM219.847 120.16C219.847 116.8 219.847 112.787 219.847 108.12C220.034 103.267 220.407 98.32 220.967 93.28C221.527 88.24 222.46 83.2933 223.767 78.44C225.074 73.4 226.847 68.92 229.087 65C231.514 61.08 234.5 57.9067 238.047 55.48C241.78 53.0533 246.354 51.84 251.767 51.84C257.18 51.84 261.754 53.0533 265.487 55.48C269.22 57.9067 272.3 61.08 274.727 65C277.154 68.92 278.927 73.4 280.047 78.44C281.354 83.2933 282.287 88.24 282.847 93.28C283.594 98.32 283.967 103.267 283.967 108.12C284.154 112.787 284.247 116.8 284.247 120.16C284.247 125.76 284.06 132.573 283.687 140.6C283.314 148.44 282.1 156.093 280.047 163.56C278.18 170.84 275.007 177.093 270.527 182.32C266.234 187.547 259.98 190.16 251.767 190.16C243.74 190.16 237.58 187.547 233.287 182.32C228.994 177.093 225.82 170.84 223.767 163.56C221.9 156.093 220.78 148.44 220.407 140.6C220.034 132.573 219.847 125.76 219.847 120.16ZM180.087 120.16C180.087 139.76 181.954 156.187 185.687 169.44C189.607 182.507 194.834 192.96 201.367 200.8C207.9 208.64 215.46 214.24 224.047 217.6C232.82 220.96 242.06 222.64 251.767 222.64C261.66 222.64 270.9 220.96 279.487 217.6C288.26 214.24 295.914 208.64 302.447 200.8C309.167 192.96 314.394 182.507 318.127 169.44C322.047 156.187 324.007 139.76 324.007 120.16C324.007 101.12 322.047 85.16 318.127 72.28C314.394 59.2133 309.167 48.76 302.447 40.92C295.914 33.08 288.26 27.48 279.487 24.12C270.9 20.76 261.66 19.08 251.767 19.08C242.06 19.08 232.82 20.76 224.047 24.12C215.46 27.48 207.9 33.08 201.367 40.92C194.834 48.76 189.607 59.2133 185.687 72.28C181.954 85.16 180.087 101.12 180.087 120.16ZM439.553 219V23H407.913C406.793 30.4667 404.46 36.72 400.913 41.76C397.366 46.8 392.98 50.9067 387.753 54.08C382.713 57.0667 376.926 59.2133 370.393 60.52C364.046 61.64 357.42 62.1067 350.513 61.92V91.88H399.793V219H439.553Z" fill="#0E3259"/>
</g>
<defs>
<filter id="filter0_d" x="0.661133" y="0.0799866" width="461.892" height="249.575" filterUnits="userSpaceOnUse" color-interpolation-filters="sRGB">
<feFlood flood-opacity="0" result="BackgroundImageFix"/>
<feColorMatrix in="SourceAlpha" type="matrix" values="0 0 0 0 0 0 0 0 0 0 0 0 0 0 0 0 0 0 127 0"/>
<feOffset dy="4"/>
<feGaussianBlur stdDeviation="11.5"/>
<feColorMatrix type="matrix" values="0 0 0 0 0.054902 0 0 0 0 0.196078 0 0 0 0 0.34902 0 0 0 0.5 0"/>
<feBlend mode="normal" in2="BackgroundImageFix" result="effect1_dropShadow"/>
<feBlend mode="normal" in="SourceGraphic" in2="effect1_dropShadow" result="shape"/>
</filter>
</defs>
</svg>
