<svg width="1440" height="461" viewBox="0 0 1440 461" fill="none" xmlns="http://www.w3.org/2000/svg" preserveAspectRatio="none">
<path d="M1321.45 308.481V172.305H1288.31V56.344H1205.46V308.481H1168.42V172.305H1103.11V114.324H1061.68V130.885H1044.14V138.139H1023.43V150.56H1011.73V308.481H998.568V114.324H937.404V308.481H928.386V204.418H849.672V308.481H845.532V35.6251H766.818V308.481H745.128V105.522L666.414 57.892V190.954H644.724V161.955H593.316V308.481H489.132V81.7071H407.124V308.481H318.546V0.415565H236.538V166.095H210.294V126.745H128.286V204.418H101.97V308.481H78.696V114.324H0V469.984H1440V308.481H1321.45Z" fill="#207FEB" fill-opacity="0.5"/>
</svg>
