<svg width="1440" height="147" viewBox="0 0 1440 147" fill="none" xmlns="http://www.w3.org/2000/svg" preserveAspectRatio="none">
<path d="M1385.77 43.551V117.516H1352.83V79.0665H1277.77V106.284H1202.69V131.125H1143.04V48.8792H1090.22V99.7674H1063.82V131.125H1048.68V74.9263H954.324V132.097H905.958V74.9263H867.276V131.125H849.258V110.55H810.594V131.125H788.022V74.9263H716.49V131.125H705.078V74.9263H666.414V131.125H657.756V0.92514H619.092V132.097H573.03V43.551H517.824V65.1339H462.636V96.5632H427.914V48.8792H368.73V37.1427H275.112V48.8792H207.162V79.0665H180.756V61.2817H137.898V43.551H0V155.984H1440V43.551H1385.77Z" fill="#0E3259"/>
</svg>
