<svg width="1440" height="497" viewBox="0 0 1440 497" fill="none" xmlns="http://www.w3.org/2000/svg" preserveAspectRatio="none">
<path d="M1398.4 212.301V401.579H1390.64V273.612H1348.09V401.651H1279.51V199.017H1228.45V401.579H1217.65V157.489C1217.66 150.97 1215.19 144.691 1210.73 139.932C1206.28 135.172 1200.18 132.291 1193.67 131.874L1192.12 67.0709L1190.57 131.874C1184.07 132.286 1177.96 135.167 1173.51 139.927C1169.05 144.687 1166.58 150.968 1166.6 157.489V401.579H1100.14V219.213H1049.08V401.579H1007.37V258.239H949.086V401.579H916.2V152.215H894.096L892.296 74.2172L890.496 152.215H861.156V202.365H824.67L806.67 171.007L788.67 202.401H785.07V172.807H733.662V401.597H723.708V298.813H700.128V267.744H660.798V246.143H618.858V282.018H599.994V103.81H586.422C584.317 98.3992 580.73 93.6903 576.073 90.2233C571.415 86.7564 565.876 84.6715 560.088 84.2076L558 0L555.984 84.0456C550.069 84.3813 544.375 86.4111 539.581 89.8932C534.787 93.3753 531.096 98.1627 528.948 103.684H518.148V401.579H508.194V218.151H459.522V401.579H443.808V218.151H409.374L375.606 159.271L341.82 218.151H308.556V401.579H300.69V307.813H247.23V401.669H235.692V327.344H208.98V401.579H184.86V275.574H144.504V401.579H141.876V318.776H115.2V307.813H88.416V401.669H80.55V260.363H42.75V218.151H15.588L13.41 127.067L11.232 218.151H0V505.984H1440V212.301H1398.4Z" fill="#3B81D0"/>
</svg>
